<svg xmlns="http://www.w3.org/2000/svg" version="1.1" xmlns:xlink="http://www.w3.org/1999/xlink" xmlns:svgjs="http://svgjs.dev/svgjs" width="1000" height="1000" viewBox="0 0 1000 1000"><rect width="1000" height="1000" fill="#ffffff"></rect><g transform="matrix(0.7,0,0,0.7,149.57575757575762,282.1265587044535)"><svg viewBox="0 0 396 247" data-background-color="#282634" preserveAspectRatio="xMidYMid meet" height="623" width="1000" xmlns="http://www.w3.org/2000/svg" xmlns:xlink="http://www.w3.org/1999/xlink"><g id="tight-bounds" transform="matrix(1,0,0,1,0.23999999999995225,-0.09999999999999432)"><svg viewBox="0 0 395.52 247.2" height="247.2" width="395.52"><g><svg></svg></g><g><svg viewBox="0 0 395.52 247.2" height="247.2" width="395.52"><g><g><path d="M28.435 234.85c-3.604 2.614-7.704 3.921-12.299 3.921-4.595 0-8.258-1.188-10.991-3.565-2.773-2.377-4.159-5.109-4.159-8.199 0-3.089 0.495-5.367 1.485-6.832 2.773 1.664 6.218 2.495 10.338 2.495 4.119 0 7.209-0.555 9.269-1.663 2.099-1.109 4.119-2.634 6.06-4.575l16.987-50.472 106.012 0c1.569 4.708 2.733 8.144 3.49 10.309l7.545 21.151c1.703 0 2.555-1.941 2.555-5.823 0-6.773-1.01-13.348-3.03-19.724l-1.93-5.913h29.958l18.373 49.284c4.278 4.476 8.595 6.714 12.952 6.713 4.357 0 7.743-0.832 10.159-2.495 1.03 0.792 1.545 2.238 1.545 4.337 0 2.139-0.337 4.099-1.01 5.882-0.673 1.782-1.723 3.367-3.149 4.753-3.089 2.891-7.644 4.337-13.665 4.337-5.981 0-11.189-1.644-15.625-4.931-5.03 3.287-10.714 4.931-17.052 4.931-6.337 0-11.783-1.604-16.338-4.812-4.357 3.208-9.486 4.812-15.388 4.812-5.902 0-10.773-1.228-14.615-3.684-3.882-2.495-5.921-6.001-6.12-10.516 0-2.733 0.535-4.436 1.604-5.109 2.614 1.664 5.268 2.495 7.962 2.495 5.704 0 9.724-1.168 12.06-3.505l-11.05-37.014h-78.484l-9.566 32.083c3.961 6.1 8.773 9.15 14.438 9.149 5.664 0 9.902-0.832 12.714-2.495 1.069 1.743 1.604 4.139 1.604 7.189 0 3.05-1.505 5.704-4.515 7.961-3.01 2.297-6.872 3.446-11.586 3.446-4.753 0-9.11-1.208-13.07-3.624-3.486 2.416-7.466 3.624-11.942 3.624-4.515 0-8.357-1.307-11.526-3.921zM83.985 36.294c-3.129-4.159-6.813-6.238-11.05-6.239-4.238 0-8.199 0.911-11.883 2.733-0.99-1.743-1.485-3.703-1.485-5.882 0-2.178 0.475-4.238 1.426-6.179 0.911-1.901 2.178-3.585 3.802-5.05 3.684-3.089 8.912-4.634 15.685-4.634 6.773 0 12.536 2.02 17.289 6.06 4.832-4.04 10.833-6.06 18.002-6.06 7.209 0 12.952 1.921 17.23 5.763 6.179-3.842 12.457-5.763 18.833-5.763 6.377 0 11.328 1.208 14.853 3.624 3.565 2.416 5.347 5.704 5.347 9.863 0 1.941-0.594 3.624-1.782 5.05-2.218-1.624-4.832-2.436-7.842-2.436-6.456 0-10.655 4.397-12.596 13.19l12.776 40.906-29.956 0-3.139-9.418c-2.139-6.773-5.288-11.902-9.446-15.388-1.228-1.069-2.377-1.703-3.446-1.901 2.935 10.642 5.416 19.544 7.442 26.707l-13.874 0-9.372-31.163-9.223 31.163-21.01 0zM273.689 230.216c-7.724 7.724-15.071 11.585-22.042 11.585-4.436 0-7.446-1.644-9.031-4.931 2.258-2.693 3.387-6.753 3.387-12.18v-2.198c0-0.555-0.059-1.069-0.178-1.545-4.832-4.357-7.248-9.506-7.249-15.447 0-5.981 2.812-12.061 8.437-18.24-1.664-3.287-2.495-6.793-2.495-10.516 0-3.723 0.555-7.209 1.663-10.456 0.038-0.11 0.076-0.219 0.115-0.328h19.917c-0.244 1.785-0.367 3.717-0.366 5.794 0 7.842 1.129 14.655 3.386 20.438 2.297 5.822 5.525 10.813 9.684 14.972 8.872 9.07 20.24 13.605 34.103 13.605 9.268 0 17.15-2.654 23.646-7.961 6.931-5.704 10.397-13.487 10.397-23.349 0-6.971-1.644-12.635-4.931-16.992-1.608-2.132-3.504-4.3-5.689-6.507l18.794 0c3.764 6.208 5.733 13.704 5.907 22.489 0 3.565-0.238 6.555-0.713 8.971 5.109-3.287 7.664-8.516 7.664-15.685 0-6.736-0.879-11.994-2.637-15.775h28.701c0.25 2.234 0.374 4.502 0.375 6.804 0 10.655-1.743 19.784-5.228 27.389-3.486 7.644-8.575 14.417-15.269 20.319-14.695 13.15-33.786 19.725-57.274 19.725-16.517 0-30.875-3.327-43.074-9.981zM243.686 65.227c0-7.011 1.703-14.12 5.109-21.329 3.446-7.209 8.159-13.328 14.14-18.358 12.477-10.655 28.34-15.982 47.59-15.982 11.684 0 22.418 1.901 32.201 5.704 4.159 1.624 8.892 2.436 14.2 2.435 2.218 0 4.238-0.119 6.06-0.356 1.782-0.238 3.347-1.228 4.693-2.971 1.267-1.822 1.901-3.466 1.902-4.931 0-1.466-0.198-2.674-0.595-3.624 0.673-0.277 1.624-0.416 2.852-0.416 1.188 0 2.515 0.396 3.981 1.188 1.426 0.832 2.733 1.98 3.921 3.446 2.614 3.287 3.921 6.971 3.921 11.051 0 4.119-1.168 7.248-3.505 9.387 3.287 2.891 4.931 7.387 4.931 13.487 0 5.981-2.04 11.011-6.119 15.09 0.792 2.614 1.188 4.951 1.188 7.011 0 2.099-0.356 4.08-1.069 5.941-0.753 1.901-1.743 3.525-2.971 4.872-2.304 2.466-4.514 3.922-6.632 4.368h-4.462c-2.64-0.266-4.943-0.89-6.908-1.873 1.624-3.882 2.436-8.04 2.436-12.476 0-4.476-0.99-9.05-2.971-13.724-1.98-4.674-4.753-8.753-8.317-12.239-7.565-7.169-17.428-10.754-29.588-10.754-7.724 0-14.061 2.377-19.012 7.13-4.634 4.436-6.951 9.803-6.951 16.1 0 4.713 1.149 8.674 3.446 11.883 3.812 5.145 9.683 10.463 17.611 15.953h-42.657c-5.87-9.418-8.631-18.32-8.284-26.707-3.684 1.545-5.525 5.565-5.526 12.061 0 4.714 1.124 9.596 3.372 14.646h-16.741c-0.831-4.379-1.246-9.717-1.246-16.013z" fill="#ff4057" fill-rule="nonzero" stroke="none" stroke-width="1" stroke-linecap="butt" stroke-linejoin="miter" stroke-miterlimit="10" stroke-dasharray="" stroke-dashoffset="0" font-family="none" font-weight="none" font-size="none" text-anchor="none" style="mix-blend-mode: normal" data-fill-palette-color="tertiary"></path></g></g><g transform="matrix(1,0,0,1,0,88.03830612591094)"><svg viewBox="0 0 395.52 71.1233877481781" height="71.1233877481781" width="395.52"><g><svg viewBox="0 0 395.52 71.1233877481781" height="71.1233877481781" width="395.52"><g><svg viewBox="0 0 395.52 71.1233877481781" height="71.1233877481781" width="395.52"><g><svg viewBox="0 0 395.52 71.1233877481781" height="71.1233877481781" width="395.52"><g><svg viewBox="0 0 395.52 71.1233877481781" height="71.1233877481781" width="395.52"><g><svg viewBox="0 0 395.52 46.588661096392904" height="46.588661096392904" width="395.52"><g transform="matrix(1,0,0,1,0,0)"><svg width="395.52" viewBox="-1.71 -41.33 359.37 42.33" height="46.588661096392904" data-palette-color="#ff4057"><path d="M2.91-0.17L2.91-0.17Q2 0.49 0.84 0.49-0.32 0.49-1.01-0.11-1.71-0.71-1.71-1.49-1.71-2.27-1.46-2.64L-1.46-2.64Q-0.76-2.22 0.28-2.22 1.32-2.22 1.84-2.5 2.37-2.78 2.86-3.27L2.86-3.27 6.32-13.55 6.81-15.23Q7.03-15.99 7.03-16.63L7.03-16.63Q7.03-18.85 4.93-19.46L4.93-19.46Q6.86-20.19 7.64-21.04L7.64-21.04Q8.86-22.39 9.57-24.58L9.57-24.58 12.26-33.59Q11.47-34.64 10.4-34.64 9.33-34.64 8.4-34.18L8.4-34.18Q8.15-34.62 8.15-35.17 8.15-35.72 8.39-36.21 8.62-36.69 9.03-37.06L9.03-37.06Q9.96-37.84 11.67-37.84 13.38-37.84 14.58-36.82L14.58-36.82Q15.8-37.84 17.61-37.84 19.43-37.84 20.51-36.87L20.51-36.87Q22.07-37.84 23.68-37.84 25.29-37.84 26.18-37.23 27.08-36.62 27.08-35.57L27.08-35.57Q27.08-35.08 26.78-34.72L26.78-34.72Q26.22-35.13 25.46-35.13L25.46-35.13Q23.83-35.13 23.34-32.91L23.34-32.91 26.46-22.92Q27.05-21.04 29.39-20L29.39-20Q30.05-19.7 30.74-19.46L30.74-19.46Q28.3-18.65 28.3-17.04L28.3-17.04Q28.3-16.43 28.49-15.97L28.49-15.97 33.15-3.47Q34.23-2.34 35.33-2.34 36.43-2.34 37.04-2.76L37.04-2.76Q37.3-2.56 37.3-2.03 37.3-1.49 37.13-1.04 36.96-0.59 36.6-0.24L36.6-0.24Q35.82 0.49 34.3 0.49 32.79 0.49 31.67-0.34L31.67-0.34Q30.4 0.49 28.8 0.49 27.2 0.49 26.05-0.32L26.05-0.32Q24.95 0.49 23.46 0.49 21.97 0.49 21-0.13 20.02-0.76 19.97-1.9L19.97-1.9Q19.97-2.59 20.24-2.76L20.24-2.76Q20.9-2.34 21.58-2.34L21.58-2.34Q23.02-2.34 23.61-2.93L23.61-2.93 21.75-9.16 8.54-9.16 6.93-3.76Q7.93-2.22 9.36-2.22 10.79-2.22 11.5-2.64L11.5-2.64Q11.77-2.2 11.77-1.43 11.77-0.66 11.01-0.09 10.25 0.49 9.06 0.49 7.86 0.49 6.86-0.12L6.86-0.12Q5.98 0.49 4.85 0.49 3.71 0.49 2.91-0.17ZM9.52-12.45L20.75-12.45 15.09-31.27 9.52-12.45ZM24.15-10.03L25.42-6.47Q25.85-6.47 25.85-7.45L25.85-7.45Q25.85-9.16 25.34-10.77L25.34-10.77 24.41-13.62Q23.44-16.85 23.44-17.68L23.44-17.68Q23.41-19.04 24.63-19.48L24.63-19.48Q22.95-19.82 22.58-20.53L22.58-20.53Q22.41-20.83 22.3-21 22.19-21.17 22.08-21.4 21.97-21.63 21.83-22 21.68-22.36 21.44-23.05L21.44-23.05 19.92-27.61Q19.38-29.32 18.33-30.2L18.33-30.2Q18.02-30.47 17.75-30.52L17.75-30.52Q19.38-24.61 19.9-22.95L19.9-22.95Q23.44-12.06 24.15-10.03L24.15-10.03ZM32.67-4.13L32.62-4.27 32.67-4.13ZM42.38-0.29L42.38-0.29Q41.26 0.49 39.82 0.49 38.38 0.49 37.73-0.18 37.08-0.85 37.08-1.46L37.08-1.46Q37.08-2.27 37.35-2.64L37.35-2.64Q37.89-2.22 38.72-2.22L38.72-2.22Q40.28-2.22 40.74-3.74L40.74-3.74 40.74-11.33Q40.74-12.4 40.28-12.89L40.28-12.89Q39.57-13.7 37.77-14.58L37.77-14.58Q39.48-15.36 39.94-15.82L39.94-15.82Q40.74-16.63 40.74-17.8L40.74-17.8 40.74-21.36Q40.74-23.44 39.33-23.61L39.33-23.61Q38.91-23.66 38.28-23.66 37.64-23.66 37.11-23.24L37.11-23.24Q36.77-23.71 36.77-24.21 36.77-24.71 37.02-25.33 37.28-25.95 37.79-26.51L37.79-26.51Q39.08-27.83 40.78-27.83 42.48-27.83 43.6-27.29L43.6-27.29Q44.94-28.81 46.34-28.81 47.73-28.81 48.26-28.16 48.8-27.51 48.8-26.17L48.8-26.17 48.8-23.88Q50.07-26.15 52.27-27.48 54.47-28.81 56.93-28.81 59.4-28.81 60.9-28.16 62.4-27.51 63.38-26.32L63.38-26.32Q65.28-23.95 65.28-19.43L65.28-19.43 65.28-17.82Q65.28-16.65 65.79-16.14L65.79-16.14Q66.55-15.36 68.26-14.58L68.26-14.58Q66.43-13.67 65.96-13.21L65.96-13.21Q65.28-12.45 65.28-11.38L65.28-11.38 65.28-3.74Q65.74-2.22 67.31-2.22L67.31-2.22Q68.14-2.22 68.67-2.64L68.67-2.64Q68.94-2.27 68.94-1.56 68.94-0.85 68.3-0.18 67.65 0.49 66.31 0.49 64.96 0.49 63.86-0.27L63.86-0.27Q62.89 0.49 61.58 0.49 60.28 0.49 59.25-0.24L59.25-0.24Q58.18 0.49 56.96 0.49 55.73 0.49 55.03-0.12 54.32-0.73 54.32-1.88L54.32-1.88Q54.32-2.42 54.69-2.73L54.69-2.73Q55.25-2.29 55.81-2.29L55.81-2.29Q56.88-2.29 57.35-3.49L57.35-3.49 57.35-18.04Q57.35-22.78 55.03-23.54L55.03-23.54Q54.27-23.78 53.39-23.78 52.51-23.78 51.76-23.43 51-23.07 50.39-22.44L50.39-22.44Q49.05-21.02 48.8-19.07L48.8-19.07 48.8-3.49Q49.27-2.29 50.34-2.29L50.34-2.29Q50.9-2.29 51.46-2.73L51.46-2.73Q51.83-2.42 51.83-1.57 51.83-0.73 51.12-0.12 50.41 0.49 49.25 0.49 48.09 0.49 47.14-0.24L47.14-0.24Q46.21 0.49 44.87 0.49 43.53 0.49 42.38-0.29ZM59.69-15.77L59.69-6.47Q60.91-6.93 61.03-9.67L61.03-9.67Q61.18-12.4 61.18-14.82 61.18-17.24 60.98-18.81 60.79-20.39 60.42-21.28 60.06-22.17 59.56-22.57 59.06-22.97 58.47-23.27L58.47-23.27Q59.4-21.07 59.54-19.26 59.69-17.46 59.69-15.77L59.69-15.77ZM44.49-11.87Q44.5-12.67 44.52-13.22 44.53-13.77 44.53-14.11 44.53-14.45 44.53-14.81 44.53-15.16 44.52-15.75 44.5-16.33 44.49-17.04 44.48-17.75 44.43-18.43L44.43-18.43Q44.36-20.12 44.21-20.75L44.21-20.75Q43.92-22.17 43.09-22.71L43.09-22.71 43.09-21.12Q43.09-17.02 42.91-16.3 42.72-15.58 42.32-15.21 41.92-14.84 41.14-14.58L41.14-14.58Q42.6-14.06 42.8-13.35L42.8-13.35Q43.09-12.18 43.09-8.08L43.09-8.08 43.09-6.49Q44.21-7.23 44.38-9.47L44.38-9.47Q44.48-11.06 44.49-11.87ZM76.12-0.29L76.12-0.29Q75 0.49 73.57 0.49 72.14 0.49 71.44-0.15 70.75-0.78 70.75-1.37L70.75-1.37Q70.75-2.17 71.09-2.64L71.09-2.64Q71.63-2.22 72.46-2.22L72.46-2.22Q73.87-2.22 74.48-3.86L74.48-3.86 74.48-11.35Q74.48-12.43 74.04-12.92L74.04-12.92Q73.36-13.67 71.5-14.58L71.5-14.58Q73.21-15.36 73.68-15.82L73.68-15.82Q74.48-16.63 74.48-17.8L74.48-17.8 74.48-31.62Q74.48-34.4 72.21-34.4L72.21-34.4Q71.38-34.4 70.84-33.98L70.84-33.98Q70.5-34.45 70.5-34.95 70.5-35.45 70.76-35.91 71.02-36.38 71.55-36.77L71.55-36.77Q72.7-37.6 74.46-37.6 76.22-37.6 77.19-37.38L77.19-37.38Q78.54-39.06 80.22-39.06L80.22-39.06Q82.73-39.06 82.73-36.43L82.73-36.43 82.73-15.99 89.79-22.51Q91.4-24.17 91.4-24.9 91.4-25.63 90.47-25.63 89.55-25.63 88.74-25.17L88.74-25.17Q88.47-25.61 88.47-26.31 88.47-27 89.2-27.66 89.94-28.32 91.28-28.32 92.62-28.32 93.65-27.49L93.65-27.49Q94.6-28.32 95.72-28.32 96.85-28.32 97.68-27.66L97.68-27.66Q98.51-28.32 99.63-28.32 100.75-28.32 101.5-27.73 102.24-27.15 102.24-26.17L102.24-26.17Q102.24-25.27 102-24.93L102-24.93Q101.34-25.59 100.37-25.59 99.41-25.59 98.81-25.31 98.21-25.02 97.5-24.5 96.8-23.97 95.94-23.22L95.94-23.22 91.89-19.7 99.34-5.05Q100.02-3.59 100.54-2.91 101.07-2.22 101.89-2.22 102.7-2.22 103.24-2.64L103.24-2.64Q103.58-2.17 103.58-1.48 103.58-0.78 102.89-0.15 102.19 0.49 100.68 0.49 99.16 0.49 97.75-0.34L97.75-0.34Q96.6 0.49 95.22 0.49 93.84 0.49 92.82-0.24L92.82-0.24Q91.87 0.49 90.68 0.49 89.5 0.49 88.79-0.09 88.08-0.66 88.08-1.54 88.08-2.42 88.45-2.73L88.45-2.73Q89.4-2 90.35-2.49L90.35-2.49Q90.69-2.66 90.96-3.15L90.96-3.15 85.79-14.4 82.73-11.74 82.73-3.49Q83.2-2.29 84.27-2.29L84.27-2.29Q84.83-2.29 85.4-2.73L85.4-2.73Q85.76-2.42 85.76-1.53 85.76-0.63 85.05-0.07 84.35 0.49 83.15 0.49 81.95 0.49 81-0.24L81-0.24Q80 0.49 78.63 0.49 77.27 0.49 76.12-0.29ZM78.17-13.65L78.17-15.11 78.19-18.36 78.19-23.14Q78.19-27.69 78.02-28.44L78.02-28.44Q77.68-29.93 76.78-30.52L76.78-30.52 76.78-22.29Q76.78-17.24 76.67-16.66 76.56-16.09 76.48-15.82L76.48-15.82Q76.26-15.06 74.82-14.58L74.82-14.58Q76.29-14.06 76.48-13.35L76.48-13.35Q76.78-12.18 76.78-8.08L76.78-8.08 76.78-6.49Q78.07-7.32 78.14-10.89L78.14-10.89 78.14-12.35Q78.17-13.09 78.17-13.65L78.17-13.65ZM87.86-16.19L92.28-6.47Q92.6-6.88 92.6-7.59 92.6-8.3 92.49-8.86 92.38-9.42 92.21-9.99L92.21-9.99Q91.89-10.89 91.28-12.13L91.28-12.13 88.96-17.16 87.86-16.19ZM112.13-32.3L112.13-32.3Q110.88-32.3 109.72-32.96 108.56-33.62 107.95-34.72L107.95-34.72Q107.29-35.84 106.19-36.43L106.19-36.43Q105.85-36.6 105.41-36.79L105.41-36.79 106.24-37.3Q107.41-38.04 107.98-39.09 108.54-40.14 109.67-40.73 110.81-41.33 112.13-41.33L112.13-41.33Q114.86-41.33 116.08-39.04L116.08-39.04Q116.91-37.52 118.64-36.79L118.64-36.79Q118.28-36.57 117.92-36.4 117.57-36.23 117.25-36.01L117.25-36.01Q116.55-35.52 116-34.57 115.45-33.62 114.41-32.96 113.37-32.3 112.13-32.3ZM110.83-35.29Q110.69-35.55 110.6-35.9 110.51-36.25 110.51-37.16 110.51-38.06 111.44-39.45L111.44-39.45Q110.54-39.45 110.17-39.12 109.81-38.79 109.62-38.56 109.44-38.33 109.31-38.1 109.17-37.87 108.98-37.6L108.98-37.6Q108.51-36.94 108.22-36.79L108.22-36.79Q108.61-36.57 108.94-36.1 109.27-35.62 109.71-35.11L109.71-35.11Q110.37-34.3 111.44-34.3L111.44-34.3Q111.3-34.57 111.14-34.8 110.98-35.03 110.83-35.29ZM109.68-0.29L109.68-0.29Q108.56 0.49 107.13 0.49 105.71 0.49 105.01-0.15 104.31-0.78 104.31-1.37L104.31-1.37Q104.31-2.17 104.66-2.64L104.66-2.64Q105.19-2.22 106.24-2.22 107.29-2.22 108.05-3.59L108.05-3.59 108.05-11.38Q108.05-12.45 107.61-12.94L107.61-12.94Q106.9-13.67 105.07-14.58L105.07-14.58Q106.78-15.36 107.24-15.82L107.24-15.82Q108.05-16.63 108.05-17.8L108.05-17.8 108.05-21.36Q108.05-23.44 106.63-23.61L106.63-23.61Q106.22-23.66 105.58-23.66 104.95-23.66 104.41-23.24L104.41-23.24Q104.07-23.71 104.07-24.21 104.07-24.71 104.33-25.33 104.58-25.95 105.12-26.51L105.12-26.51Q106.39-27.83 108.05-27.83 109.71-27.83 111.05-27.25L111.05-27.25Q112.25-28.81 113.79-28.81L113.79-28.81Q116.3-28.81 116.3-26.17L116.3-26.17 116.3-17.8Q116.3-16.63 116.81-16.11L116.81-16.11Q117.57-15.36 119.28-14.58L119.28-14.58Q117.45-13.67 116.98-13.21L116.98-13.21Q116.3-12.45 116.3-11.38L116.3-11.38 116.3-3.52Q117.11-2.22 118.13-2.22 119.16-2.22 119.69-2.64L119.69-2.64Q120.04-2.17 120.04-1.48 120.04-0.78 119.34-0.15 118.64 0.49 117.25 0.49 115.86 0.49 114.67-0.29L114.67-0.29Q113.66 0.49 112.25 0.49 110.83 0.49 109.68-0.29ZM111.8-11.87Q111.81-12.7 111.82-13.26 111.83-13.82 111.83-14.16L111.83-14.16 111.83-14.82Q111.83-15.19 111.82-15.77 111.81-16.36 111.8-17.07 111.78-17.77 111.76-18.46L111.76-18.46Q111.66-20.14 111.52-20.78L111.52-20.78Q111.22-22.19 110.39-22.73L110.39-22.73 110.39-21.14Q110.39-17.02 110.21-16.3 110.03-15.58 109.62-15.22 109.22-14.87 108.44-14.6L108.44-14.6Q109.9-14.09 110.1-13.35L110.1-13.35Q110.39-12.18 110.39-8.06L110.39-8.06 110.39-6.47Q111.52-7.2 111.66-9.47L111.66-9.47Q111.78-11.04 111.8-11.87ZM138.37-3.58Q138.83-4.05 139.1-4.8 139.37-5.54 139.37-6.36 139.37-7.18 139.27-7.86L139.27-7.86Q139.44-8.23 140.2-8.44 140.96-8.64 141.2-8.64L141.2-8.64Q142.13-8.64 142.69-7.95 143.25-7.25 143.25-6.02 143.25-4.79 142.53-3.59 141.81-2.39 140.62-1.46L140.62-1.46Q137.95 0.61 134.41 0.61L134.41 0.61Q127.68 0.61 125.48-4.49L125.48-4.49Q124.67-6.37 124.67-9.2L124.67-9.2 124.67-12.18Q124.67-13.33 122.16-14.6L122.16-14.6Q124.67-16.04 124.67-18.48L124.67-18.48 124.67-21.36Q124.67-24.15 122.4-24.15L122.4-24.15Q121.57-24.15 121.03-23.73L121.03-23.73Q120.69-24.19 120.69-24.69 120.69-25.2 120.88-25.79 121.06-26.39 121.52-26.88L121.52-26.88Q122.7-28.15 125.16-27.76L125.16-27.76 125.16-28.54Q125.16-31.1 126.45-33.06L126.45-33.06Q127.6-34.81 128.49-34.81 129.38-34.81 129.87-34.2L129.87-34.2Q130.29-36.13 130.97-36.99 131.66-37.84 132.92-37.84L132.92-37.84 132.92-27.66 140.86-27.66Q141.05-27.27 141.05-26.35 141.05-25.44 140.35-24.89 139.64-24.34 138.64-24.34L138.64-24.34 132.92-24.34 132.92-7.81Q132.92-3.56 134.85-2.83L134.85-2.83Q135.41-2.64 136.06-2.64 136.71-2.64 137.31-2.87 137.91-3.1 138.37-3.58ZM127.02-8.06L127.02-6.47Q128.16-7.2 128.31-9.52L128.31-9.52Q128.41-11.18 128.42-12.11 128.43-13.04 128.44-13.61 128.46-14.18 128.46-14.5L128.46-14.5 128.46-15.48Q128.46-16.19 128.44-17.3 128.43-18.41 128.42-19.71 128.41-21.02 128.36-22.22L128.36-22.22Q128.29-25.1 128.14-25.73L128.14-25.73Q127.85-27.15 127.02-27.69L127.02-27.69 127.02-20.07Q127.02-16.67 126.91-16.48 126.8-16.28 126.72-16.02L126.72-16.02Q126.5-15.28 125.06-14.79L125.06-14.79Q126.53-14.28 126.72-13.55L126.72-13.55Q127.02-12.38 127.02-8.06L127.02-8.06ZM163.1-0.95L163.1-0.95Q161.14 1 159.38 1L159.38 1Q158.26 1 157.87 0.17L157.87 0.17Q158.43-0.51 158.43-1.88L158.43-1.88 158.43-2.25Q158.43-2.39 158.41-2.51L158.41-2.51Q157.19-3.61 157.19-5.11 157.19-6.62 158.6-8.18L158.6-8.18Q158.19-9.01 158.19-9.95 158.19-10.89 158.47-11.71 158.75-12.52 159.24-13.13L159.24-13.13Q160.26-14.48 161.25-14.48 162.24-14.48 162.66-13.7L162.66-13.7Q161.78-12.77 161.78-10.79 161.78-8.81 162.35-7.35 162.92-5.88 163.97-4.83L163.97-4.83Q166.22-2.54 169.71-2.54L169.71-2.54Q172.06-2.54 173.69-3.88L173.69-3.88Q175.45-5.32 175.45-7.81L175.45-7.81Q175.45-9.57 174.62-10.67L174.62-10.67Q173.32-12.38 170.57-14.28L170.57-14.28Q168.44-15.77 167.17-15.77L167.17-15.77Q165.88-15.77 164.32-14.72L164.32-14.72Q164.73-15.97 164.73-17.04L164.73-17.04Q164.73-17.29 164.27-17.68L164.27-17.68 163.36-18.48Q159.09-22.41 158.31-25.78L158.31-25.78Q158.04-26.95 158.04-28.72 158.04-30.49 158.91-32.31 159.78-34.13 161.29-35.4L161.29-35.4Q164.44-38.09 169.3-38.09L169.3-38.09Q172.25-38.09 174.72-37.13L174.72-37.13Q175.77-36.72 177.11-36.72L177.11-36.72Q177.67-36.72 178.12-36.78 178.57-36.84 178.92-37.28L178.92-37.28Q179.23-37.74 179.23-38.11 179.23-38.48 179.14-38.72L179.14-38.72Q179.31-38.79 179.61-38.79 179.92-38.79 180.28-38.59 180.65-38.38 180.94-38.01L180.94-38.01Q181.6-37.18 181.6-36.15 181.6-35.11 181.02-34.57L181.02-34.57Q181.85-33.84 181.85-32.3L181.85-32.3Q181.85-30.79 180.82-29.76L180.82-29.76Q181.02-29.1 181.02-28.58 181.02-28.05 180.83-27.58 180.65-27.1 180.33-26.76L180.33-26.76Q179.62-26 178.99-26L178.99-26Q177.99-26 177.3-26.34L177.3-26.34Q177.72-27.32 177.72-28.44 177.72-29.57 177.22-30.75 176.72-31.93 175.82-32.81L175.82-32.81Q173.91-34.62 170.83-34.62L170.83-34.62Q168.88-34.62 167.64-33.42L167.64-33.42Q166.46-32.3 166.46-30.71L166.46-30.71Q166.46-29.52 167.05-28.71L167.05-28.71Q168.08-27.32 170.3-25.83L170.3-25.83 171.47-25.05Q172.45-24.44 172.79-24.44 173.13-24.44 173.47-24.51 173.81-24.58 174.23-24.71L174.23-24.71Q175.11-25 175.94-25.54L175.94-25.54 175.62-24.17Q175.47-23.49 175.47-23.17L175.47-23.17Q175.47-22.66 175.99-22.24L175.99-22.24Q180.55-18.29 182.09-15.63L182.09-15.63Q183.43-13.31 183.43-10.62 183.43-7.93 182.55-6.01 181.67-4.08 179.99-2.59L179.99-2.59Q176.28 0.73 170.35 0.73L170.35 0.73Q166.17 0.73 163.1-0.95ZM161.44-30.52L161.44-30.52Q160.51-30.13 160.51-28.49L160.51-28.49Q160.51-25.15 164.98-21.14L164.98-21.14 166.44-19.82Q167.2-19.14 167.11-18.77 167.03-18.41 166.96-18.19 166.9-17.97 166.83-17.77 166.76-17.58 166.73-17.48L166.73-17.48Q167.59-17.99 168.12-17.99L168.12-17.99Q169.2-17.99 170.15-17.41L170.15-17.41Q174.86-14.48 176.55-12.18L176.55-12.18Q177.77-10.5 177.82-7.98L177.82-7.98Q177.82-7.08 177.69-6.47L177.69-6.47Q178.99-7.3 178.99-9.11L178.99-9.11Q178.99-10.86 178.51-11.82 178.04-12.77 177.4-13.51 176.77-14.26 175.75-15.14 174.74-16.02 173.25-17.04L173.25-17.04 169.78-19.41Q165.51-22.22 163.29-25.34L163.29-25.34Q161.34-28.1 161.44-30.52ZM192.12-0.29L192.12-0.29Q191 0.49 189.57 0.49 188.14 0.49 187.45-0.15 186.75-0.78 186.75-1.37L186.75-1.37Q186.75-2.17 187.09-2.64L187.09-2.64Q187.63-2.22 188.46-2.22L188.46-2.22Q189.88-2.22 190.49-3.86L190.49-3.86 190.49-11.38Q190.49-12.6 190.02-13.04L190.02-13.04Q189.46-13.62 187.51-14.58L187.51-14.58Q189.22-15.36 189.68-15.82L189.68-15.82Q190.49-16.63 190.49-17.8L190.49-17.8 190.49-31.62Q190.49-34.4 188.21-34.4L188.21-34.4Q187.38-34.4 186.85-33.98L186.85-33.98Q186.51-34.45 186.51-34.95 186.51-35.45 186.76-35.91 187.02-36.38 187.53-36.77L187.53-36.77Q188.7-37.6 190.46-37.6 192.22-37.6 193.2-37.38L193.2-37.38Q194.54-39.06 196.22-39.06L196.22-39.06Q198.74-39.06 198.74-36.43L198.74-36.43 198.74-24.39Q201.11-28.81 206.48-28.81L206.48-28.81Q212.63-28.81 214.31-23.36L214.31-23.36Q214.85-21.63 214.85-19.43L214.85-19.43 214.85-17.8Q214.85-16.65 215.36-16.14L215.36-16.14Q216.12-15.38 217.83-14.6L217.83-14.6Q215.97-13.7 215.53-13.21L215.53-13.21Q214.85-12.45 214.85-11.38L214.85-11.38 214.85-3.74Q215.31-2.22 216.88-2.22L216.88-2.22Q217.71-2.22 218.24-2.64L218.24-2.64Q218.51-2.27 218.51-1.56 218.51-0.85 217.87-0.18 217.22 0.49 215.8 0.49 214.39 0.49 213.19-0.29L213.19-0.29Q212.09 0.49 210.71 0.49 209.33 0.49 208.31-0.24L208.31-0.24Q207.36 0.49 206.17 0.49 204.99 0.49 204.28-0.12 203.57-0.73 203.57-1.88L203.57-1.88Q203.57-2.42 203.94-2.73L203.94-2.73Q204.5-2.29 205.06-2.29L205.06-2.29Q206.13-2.29 206.6-3.49L206.6-3.49 206.6-18.04Q206.6-22.8 204.28-23.54L204.28-23.54Q203.55-23.78 202.69-23.78L202.69-23.78Q200.15-23.78 199.15-21.09L199.15-21.09Q198.84-20.26 198.74-19.29L198.74-19.29 198.74-3.49Q199.2-2.29 200.28-2.29L200.28-2.29Q200.84-2.29 201.4-2.73L201.4-2.73Q201.76-2.42 201.76-1.57 201.76-0.73 201.06-0.12 200.35 0.49 199.15 0.49 197.96 0.49 197-0.24L197-0.24Q196 0.49 194.64 0.49 193.27 0.49 192.12-0.29ZM192.78-8.08L192.78-6.49Q193.88-7.2 194.07-9.59L194.07-9.59Q194.15-10.64 194.17-11.94 194.2-13.23 194.21-13.78 194.22-14.33 194.22-14.6L194.22-14.6 194.22-16.8Q194.22-17.7 194.22-18.85L194.22-18.85 194.17-21.24Q194.12-27.71 193.95-28.44L193.95-28.44Q193.61-29.98 192.78-30.52L192.78-30.52 192.78-22.29Q192.78-17.24 192.67-16.66 192.56-16.09 192.49-15.82L192.49-15.82Q192.27-15.06 190.83-14.58L190.83-14.58Q192.29-14.06 192.49-13.35L192.49-13.35Q192.78-12.18 192.78-8.08L192.78-8.08ZM208.92-15.26L208.92-6.47Q210.14-6.93 210.29-9.67L210.29-9.67Q210.41-12.4 210.41-14.69 210.41-16.97 210.26-18.41 210.11-19.85 209.78-20.69 209.46-21.53 208.94-21.96 208.43-22.39 207.7-22.75L207.7-22.75Q208.63-20.56 208.77-18.75 208.92-16.94 208.92-15.26L208.92-15.26ZM238.33-2.32L238.33-2.32Q236.11 0.61 231.67 0.61L231.67 0.61Q226.25 0.61 223.54-2.64L223.54-2.64Q222.37-4.03 221.93-5.74L221.93-5.74Q221.68-6.76 221.07-7.31 220.46-7.86 219.56-8.3L219.56-8.3Q221.32-9.11 222.07-11.33L222.07-11.33Q222.88-13.67 224.76-14.72L224.76-14.72Q226.79-15.82 229.23-15.88 231.67-15.94 232.84-16.04 234.01-16.14 234.92-16.36L234.92-16.36Q236.6-16.75 237.55-17.8L237.55-17.8 237.55-21.46Q237.55-23.88 236.56-25 235.58-26.12 233.56-26.12 231.55-26.12 230.58-25.38 229.62-24.63 229.62-23.39L229.62-23.39Q229.62-21.48 231.57-21.53L231.57-21.53Q231.18-19.63 229.52-19.63L229.52-19.63Q229.03-19.63 228.57-19.8L228.57-19.8 228.57-19.73Q228.57-19.09 229.15-18.92L229.15-18.92Q228.54-17.99 227.1-18.02 225.66-18.04 224.86-19.56L224.86-19.56Q224.49-19.46 224.02-19.46 223.54-19.46 222.97-19.78 222.39-20.09 222.05-20.65L222.05-20.65Q223.27-21.39 223.54-22.92L223.54-22.92Q223.83-24.8 226.54-26.73L226.54-26.73Q229.81-29.05 234.89-29.05L234.89-29.05Q243.31-29.05 245.17-23.88L245.17-23.88Q245.78-22.14 245.78-19.78L245.78-19.78 245.78-17.8Q245.78-16.6 246.38-15.84 246.98-15.09 248.42-14.6L248.42-14.6Q246.88-13.89 246.44-13.33L246.44-13.33Q245.78-12.48 245.78-11.38L245.78-11.38 245.78-4.05Q246.49-2.22 247.81-2.22L247.81-2.22Q248.64-2.22 249.17-2.64L249.17-2.64Q249.52-2.17 249.52-1.48 249.52-0.78 248.82-0.15 248.12 0.49 246.73 0.49 245.34 0.49 244.15-0.29L244.15-0.29Q243.1 0.49 242.28 0.49 241.46 0.49 240.86 0.33 240.26 0.17 239.75-0.17L239.75-0.17Q238.6-0.93 238.33-2.32ZM239.87-22.73L239.87-6.47Q241.29-7.03 241.36-11.87L241.36-11.87Q241.36-12.89 241.36-14.21 241.36-15.53 241.35-16.47 241.34-17.41 241.31-18.26L241.31-18.26Q241.22-21.34 240.75-21.94 240.29-22.53 239.87-22.73L239.87-22.73ZM230.86-8.2L230.86-8.2Q230.86-7.18 231.08-6.2 231.3-5.22 231.74-4.49L231.74-4.49Q232.72-2.95 234.5-2.95L234.5-2.95Q235.84-2.95 236.72-4.05L236.72-4.05Q237.55-5.13 237.55-6.81L237.55-6.81 237.55-14.77Q235.99-13.87 233.55-13.53L233.55-13.53Q230.86-13.11 230.86-8.2ZM227.2-2.71L227.2-2.71Q227.45-2.88 227.45-3.15L227.45-3.15Q227.45-3.52 227.1-4.17L227.1-4.17Q225.88-6.42 225.88-7.86 225.88-9.3 225.99-9.94 226.1-10.57 226.29-11.02 226.47-11.47 226.7-11.82 226.93-12.16 227.1-12.43L227.1-12.43Q227.42-12.99 227.42-13.2 227.42-13.4 227.2-13.55L227.2-13.55Q226.2-13.09 225.74-12.45L225.74-12.45Q224.91-11.33 224.52-9.55L224.52-9.55Q224.42-9.03 222.81-8.3L222.81-8.3Q224.37-7.59 224.52-7.06L224.52-7.06Q225.35-4.15 227.2-2.71ZM257.08-0.29L257.08-0.29Q255.96 0.49 254.52 0.49 253.08 0.49 252.43-0.18 251.78-0.85 251.78-1.46L251.78-1.46Q251.78-2.27 252.05-2.64L252.05-2.64Q252.59-2.22 253.42-2.22L253.42-2.22Q254.98-2.22 255.45-3.74L255.45-3.74 255.45-11.13Q255.45-12.26 255.01-12.79L255.01-12.79Q254.23-13.75 252.47-14.6L252.47-14.6Q255.45-15.97 255.45-18.8L255.45-18.8 255.45-21.36Q255.45-23.44 254.03-23.61L254.03-23.61Q253.62-23.66 252.98-23.66 252.35-23.66 251.81-23.24L251.81-23.24Q251.47-23.71 251.47-24.21 251.47-24.71 251.72-25.33 251.98-25.95 252.52-26.51L252.52-26.51Q253.79-27.83 255.48-27.83 257.18-27.83 258.3-27.29L258.3-27.29Q259.65-28.81 261.18-28.81L261.18-28.81Q263.58-28.81 263.58-26.17L263.58-26.17 263.58-22.83Q266.02-28.83 271.34-28.83L271.34-28.83Q273.73-28.83 275.22-27.37L275.22-27.37Q276.76-25.88 276.76-23.24L276.76-23.24 276.76-22.9Q276.76-22.73 276.71-22.2 276.66-21.68 276.75-21.14 276.83-20.61 277.03-20.26L277.03-20.26Q277.3-19.75 278.03-19.46L278.03-19.46Q277.86-18.8 277.24-18.27 276.61-17.75 275.86-17.75L275.86-17.75 275.39-17.75Q274.44-16.55 272.73-16.06L272.73-16.06Q272.24-15.92 271.67-15.92 271.1-15.92 270.67-16.17 270.24-16.43 270.19-16.72L270.19-16.72Q270.66-16.94 270.66-17.6L270.66-17.6 270.66-17.72Q270.46-17.68 270.31-17.68L270.31-17.68 270.07-17.68Q269.26-17.68 268.62-18.29 267.97-18.9 267.78-19.82L267.78-19.82Q269.09-19.78 270.07-20.8L270.07-20.8Q270.95-21.7 270.95-22.66L270.95-22.66Q270.95-24.9 269-24.9L269-24.9Q267.31-24.9 265.6-22.22L265.6-22.22Q263.99-19.75 263.58-17.11L263.58-17.11 263.58-3.91Q263.84-3.05 264.41-2.64 264.97-2.22 265.94-2.22 266.92-2.22 267.46-2.64L267.46-2.64Q267.73-2.27 267.73-1.56 267.73-0.85 267.08-0.18 266.43 0.49 264.91 0.49 263.38 0.49 261.99-0.34L261.99-0.34Q261.01 0.49 259.62 0.49 258.23 0.49 257.08-0.29ZM259.19-11.88Q259.21-12.7 259.22-13.26 259.23-13.82 259.23-14.16L259.23-14.16 259.23-14.82Q259.23-15.19 259.22-15.76 259.21-16.33 259.19-17.05 259.18-17.77 259.16-18.46L259.16-18.46Q259.01-21 258.61-21.72 258.21-22.44 257.79-22.71L257.79-22.71 257.79-21.12Q257.79-17.02 257.61-16.3 257.42-15.58 257.02-15.22 256.62-14.87 255.84-14.6L255.84-14.6Q257.3-14.09 257.5-13.35L257.5-13.35Q257.79-12.18 257.79-8.08L257.79-8.08 257.79-6.49Q258.91-7.23 259.06-9.47L259.06-9.47Q259.18-11.06 259.19-11.88ZM284.28-0.29L284.28-0.29Q283.15 0.49 281.71 0.49 280.27 0.49 279.63-0.18 278.98-0.85 278.98-1.46L278.98-1.46Q278.98-2.27 279.25-2.64L279.25-2.64Q279.78-2.22 280.61-2.22L280.61-2.22Q282.18-2.22 282.64-3.74L282.64-3.74 282.64-11.35Q282.64-12.43 282.18-12.92L282.18-12.92Q281.52-13.67 279.66-14.58L279.66-14.58Q281.37-15.36 281.84-15.82L281.84-15.82Q282.64-16.63 282.64-17.8L282.64-17.8 282.64-21.36Q282.64-23.44 281.23-23.61L281.23-23.61Q280.81-23.66 280.18-23.66 279.54-23.66 279-23.24L279-23.24Q278.66-23.71 278.66-24.21 278.66-24.71 278.92-25.33 279.17-25.95 279.69-26.51L279.69-26.51Q280.98-27.83 282.68-27.83 284.37-27.83 285.5-27.29L285.5-27.29Q286.84-28.81 288.38-28.81L288.38-28.81Q290.89-28.81 290.89-26.17L290.89-26.17 290.87-24.15Q292.92-27.42 296.58-28.47L296.58-28.47Q297.78-28.81 299.05-28.81L299.05-28.81Q301.93-28.81 303.83-27.42 305.74-26.03 306.57-23.46L306.57-23.46Q308.4-27.25 312.5-28.42L312.5-28.42Q313.84-28.81 315.54-28.81 317.24-28.81 318.74-28.16 320.24-27.51 321.29-26.32L321.29-26.32Q323.41-23.83 323.41-19.43L323.41-19.43 323.34-17.8Q323.34-16.63 323.85-16.11L323.85-16.11Q324.61-15.36 326.32-14.58L326.32-14.58Q324.46-13.67 324.02-13.18L324.02-13.18Q323.34-12.43 323.34-11.35L323.34-11.35 323.34-3.74Q323.8-2.22 325.37-2.22L325.37-2.22Q325.95-2.22 326.49-2.64L326.49-2.64Q326.64-2.44 326.82-2.26 327-2.08 327-1.46 327-0.85 326.35-0.18 325.71 0.49 324.3 0.49 322.9 0.49 321.7-0.29L321.7-0.29Q320.6 0.49 319.25 0.49 317.89 0.49 316.87-0.24L316.87-0.24Q315.92 0.49 314.73 0.49 313.55 0.49 312.84-0.12 312.13-0.73 312.13-1.88L312.13-1.88Q312.13-2.42 312.5-2.73L312.5-2.73Q313.06-2.29 313.62-2.29L313.62-2.29Q314.7-2.29 315.16-3.49L315.16-3.49 315.16-18.04Q315.16-23.78 310.99-23.78L310.99-23.78Q309.79-23.78 308.64-22.39L308.64-22.39Q307.49-21.02 307.15-19.07L307.15-19.07 307.08-3.49Q307.54-2.29 308.62-2.29L308.62-2.29Q309.18-2.29 309.74-2.73L309.74-2.73Q310.11-2.42 310.11-1.57 310.11-0.73 309.4-0.12 308.69 0.49 307.49 0.49 306.3 0.49 305.35-0.24L305.35-0.24Q304.3 0.49 302.97 0.49 301.64 0.49 300.61-0.24L300.61-0.24Q299.66 0.49 298.47 0.49 297.29 0.49 296.58-0.12 295.87-0.73 295.87-1.88L295.87-1.88Q295.87-2.42 296.24-2.73L296.24-2.73Q296.8-2.29 297.36-2.29L297.36-2.29Q298.44-2.29 298.9-3.49L298.9-3.49 298.9-18.04Q298.9-22.61 296.68-23.49L296.68-23.49Q295.97-23.78 295.12-23.78L295.12-23.78Q293.48-23.78 292.28-22.36L292.28-22.36Q291.16-21.04 290.87-19.04L290.87-19.04 290.82-3.49Q291.28-2.29 292.36-2.29L292.36-2.29Q292.92-2.29 293.48-2.73L293.48-2.73Q293.92-2.37 293.92-1.55 293.92-0.73 293.18-0.12 292.43 0.49 291.22 0.49 290.01 0.49 289.09-0.22L289.09-0.22Q288.11 0.49 286.77 0.49 285.42 0.49 284.28-0.29ZM316.77-22.73L316.77-22.73Q317.5-20.95 317.5-15.77L317.5-15.77 317.5-6.47Q318.73-6.93 318.85-9.67L318.85-9.67Q318.99-12.4 318.99-14.51 318.99-16.63 318.87-18.04 318.75-19.46 318.48-20.41L318.48-20.41Q317.99-22.12 316.77-22.73ZM300.51-22.73L300.51-22.73Q301.24-20.95 301.24-15.77L301.24-15.77 301.24-6.47Q302.47-6.93 302.59-9.67L302.59-9.67Q302.73-12.4 302.73-14.51 302.73-16.63 302.61-18.04 302.49-19.46 302.22-20.41L302.22-20.41Q301.73-22.12 300.51-22.73ZM284.98-8.06L284.98-6.47Q286.13-7.2 286.28-9.52L286.28-9.52Q286.38-11.28 286.38-12.67L286.38-12.67 286.38-15.77Q286.38-19.38 286.18-20.41L286.18-20.41Q285.84-22.17 284.98-22.73L284.98-22.73 284.98-21.14Q284.98-17.02 284.8-16.3 284.62-15.58 284.22-15.21 283.81-14.84 283.03-14.58L283.03-14.58Q284.5-14.06 284.69-13.35L284.69-13.35Q284.98-12.18 284.98-8.06L284.98-8.06ZM346.48-2.32L346.48-2.32Q344.26 0.61 339.82 0.61L339.82 0.61Q334.4 0.61 331.69-2.64L331.69-2.64Q330.51-4.03 330.08-5.74L330.08-5.74Q329.83-6.76 329.22-7.31 328.61-7.86 327.71-8.3L327.71-8.3Q329.46-9.11 330.22-11.33L330.22-11.33Q331.03-13.67 332.91-14.72L332.91-14.72Q334.93-15.82 337.37-15.88 339.82-15.94 340.99-16.04 342.16-16.14 343.06-16.36L343.06-16.36Q344.75-16.75 345.7-17.8L345.7-17.8 345.7-21.46Q345.7-23.88 344.71-25 343.72-26.12 341.71-26.12 339.69-26.12 338.73-25.38 337.77-24.63 337.77-23.39L337.77-23.39Q337.77-21.48 339.72-21.53L339.72-21.53Q339.33-19.63 337.67-19.63L337.67-19.63Q337.18-19.63 336.72-19.8L336.72-19.8 336.72-19.73Q336.72-19.09 337.3-18.92L337.3-18.92Q336.69-17.99 335.25-18.02 333.81-18.04 333-19.56L333-19.56Q332.64-19.46 332.16-19.46 331.69-19.46 331.11-19.78 330.54-20.09 330.2-20.65L330.2-20.65Q331.42-21.39 331.69-22.92L331.69-22.92Q331.98-24.8 334.69-26.73L334.69-26.73Q337.96-29.05 343.04-29.05L343.04-29.05Q351.46-29.05 353.32-23.88L353.32-23.88Q353.93-22.14 353.93-19.78L353.93-19.78 353.93-17.8Q353.93-16.6 354.53-15.84 355.12-15.09 356.56-14.6L356.56-14.6Q355.03-13.89 354.59-13.33L354.59-13.33Q353.93-12.48 353.93-11.38L353.93-11.38 353.93-4.05Q354.64-2.22 355.95-2.22L355.95-2.22Q356.78-2.22 357.32-2.64L357.32-2.64Q357.66-2.17 357.66-1.48 357.66-0.78 356.97-0.15 356.27 0.49 354.88 0.49 353.49 0.49 352.29-0.29L352.29-0.29Q351.24 0.49 350.42 0.49 349.61 0.49 349.01 0.33 348.41 0.17 347.9-0.17L347.9-0.17Q346.75-0.93 346.48-2.32ZM348.02-22.73L348.02-6.47Q349.44-7.03 349.51-11.87L349.51-11.87Q349.51-12.89 349.51-14.21 349.51-15.53 349.5-16.47 349.48-17.41 349.46-18.26L349.46-18.26Q349.36-21.34 348.9-21.94 348.43-22.53 348.02-22.73L348.02-22.73ZM339.01-8.2L339.01-8.2Q339.01-7.18 339.23-6.2 339.45-5.22 339.89-4.49L339.89-4.49Q340.87-2.95 342.65-2.95L342.65-2.95Q343.99-2.95 344.87-4.05L344.87-4.05Q345.7-5.13 345.7-6.81L345.7-6.81 345.7-14.77Q344.14-13.87 341.7-13.53L341.7-13.53Q339.01-13.11 339.01-8.2ZM335.35-2.71L335.35-2.71Q335.59-2.88 335.59-3.15L335.59-3.15Q335.59-3.52 335.25-4.17L335.25-4.17Q334.03-6.42 334.03-7.86 334.03-9.3 334.14-9.94 334.25-10.57 334.43-11.02 334.62-11.47 334.85-11.82 335.08-12.16 335.25-12.43L335.25-12.43Q335.57-12.99 335.57-13.2 335.57-13.4 335.35-13.55L335.35-13.55Q334.35-13.09 333.88-12.45L333.88-12.45Q333.05-11.33 332.66-9.55L332.66-9.55Q332.57-9.03 330.95-8.3L330.95-8.3Q332.52-7.59 332.66-7.06L332.66-7.06Q333.49-4.15 335.35-2.71Z" opacity="1" transform="matrix(1,0,0,1,0,0)" fill="#000000" class="undefined-text-0" data-fill-palette-color="primary" id="text-0"></path></svg></g></svg></g><g transform="matrix(1,0,0,1,0,53.387064878222944)"><svg viewBox="0 0 395.52 17.736322869955156" height="17.736322869955156" width="395.52"><g transform="matrix(1,0,0,1,0,0)"><svg width="395.52" viewBox="1.5 -33.5 758.14 34" height="17.736322869955156" data-palette-color="#000000"><path d="M12.3 0L1.5 0 1.5-0.8 4.65-2.45 17.5-33.25 20.25-33.25 32.95-2.6 36.3-0.8 36.3 0 23.1 0 23.1-0.8 27.5-2.55 23.8-11.55 11.75-11.55 8.1-2.5 12.3-0.8 12.3 0ZM17.8-26.35L12.9-14.3 22.7-14.3 17.8-26.35ZM49.75 0.5L49.75 0.5Q47.05 0.5 45.07-0.05 43.1-0.6 41.1-1.6L41.1-1.6 40.65-8.4 41.45-8.4 44.05-3.75Q45.4-2.7 46.9-2.3 48.4-1.9 49.95-1.9L49.95-1.9Q52.7-1.9 54.2-3 55.7-4.1 55.7-6.4L55.7-6.4Q55.7-8.1 54.8-9.05 53.9-10 52.1-10.83 50.3-11.65 47.65-12.9L47.65-12.9Q44.5-14.4 43.1-16.03 41.7-17.65 41.7-20.4L41.7-20.4Q41.7-22.6 42.97-24.45 44.25-26.3 46.37-27.43 48.5-28.55 51-28.55L51-28.55Q53.15-28.55 54.95-28.03 56.75-27.5 58.4-26.65L58.4-26.65 58.8-20.1 58-20.1 55.7-24.5Q53.65-26.15 51.1-26.15L51.1-26.15Q48.7-26.15 47.32-24.98 45.95-23.8 45.95-21.8L45.95-21.8Q45.95-20.5 46.6-19.63 47.25-18.75 48.62-17.98 50-17.2 52.15-16.15L52.15-16.15Q54.95-14.8 56.65-13.65 58.35-12.5 59.12-11.08 59.9-9.65 59.9-7.5L59.9-7.5Q59.9-5.15 58.57-3.35 57.25-1.55 54.95-0.53 52.65 0.5 49.75 0.5ZM78.35 0L65.55 0 65.55-0.8 69.2-2.45 69.2-25.55 65.55-27.2 65.55-28 77.6-28Q83.2-28 86.1-26.08 89-24.15 89-20.1L89-20.1Q89-17.6 87.45-15.75 85.9-13.9 83.17-12.93 80.45-11.95 76.9-11.95L76.9-11.95 74.15-11.95 74.15-2.45 78.35-0.8 78.35 0ZM76.3-25.5L74.15-25.5 74.15-14.4 76.6-14.4Q79.95-14.4 81.9-15.88 83.85-17.35 83.85-20L83.85-20Q83.85-22.95 81.87-24.23 79.9-25.5 76.3-25.5L76.3-25.5ZM106.34 0L94.59 0 94.59-0.8 97.89-2.45 97.89-25.55 94.59-27.2 94.59-28 106.34-28 106.34-27.2 102.89-25.55 102.89-2.45 106.34-0.8 106.34 0ZM124.39 0L112.54 0 112.54-0.8 116.19-2.45 116.19-25.55 112.54-27.2 112.54-28 124.64-28Q129.24-28 131.92-26.13 134.59-24.25 134.59-20.95L134.59-20.95Q134.59-18.55 133.12-16.82 131.64-15.1 128.89-14.1L128.89-14.1 136.59-2.35 139.89-0.8 139.89 0 132.04 0 124.14-12.75 121.09-12.75 121.09-2.5 124.39-0.8 124.39 0ZM123.44-25.55L123.44-25.55 121.09-25.55 121.09-15.2 123.64-15.2Q126.34-15.2 127.89-16.6 129.44-18 129.44-20.4L129.44-20.4Q129.44-22.95 127.87-24.25 126.29-25.55 123.44-25.55ZM154.54 0L142.79 0 142.79-0.8 146.09-2.45 146.09-25.55 142.79-27.2 142.79-28 154.54-28 154.54-27.2 151.09-25.55 151.09-2.45 154.54-0.8 154.54 0ZM171.39 0L160.54 0 160.54-0.8 164.09-2.45 164.09-25.6 160.54-27.2 160.54-28 167.99-28 184.89-7.95 184.89-25.6 180.49-27.2 180.49-28 191.24-28 191.24-27.2 187.69-25.6 187.69 0.2 185.39 0.2 166.94-21.55 166.94-2.6 171.39-0.8 171.39 0ZM211.98 0.5L211.98 0.5Q207.78 0.5 204.46-1.28 201.13-3.05 199.21-6.15 197.28-9.25 197.28-13.25L197.28-13.25Q197.28-16.55 198.51-19.33 199.73-22.1 201.88-24.18 204.03-26.25 206.86-27.38 209.68-28.5 212.88-28.5L212.88-28.5Q216.23-28.5 218.26-27.93 220.28-27.35 222.13-26.45L222.13-26.45 222.43-19.25 221.68-19.25 218.68-24.25Q216.98-25.4 215.76-25.85 214.53-26.3 212.93-26.3L212.93-26.3Q209.68-26.3 207.21-24.85 204.73-23.4 203.36-20.85 201.98-18.3 201.98-15.1L201.98-15.1Q201.98-11 203.43-8.08 204.88-5.15 207.41-3.58 209.93-2 213.13-2L213.13-2Q214.43-2 215.71-2.18 216.98-2.35 218.28-2.85L218.28-2.85 218.28-10 214.43-11.75 214.43-12.5 225.88-12.5 225.88-11.75 222.88-9.9 222.88-3.1Q221.63-2 219.78-1.2 217.93-0.4 215.88 0.05 213.83 0.5 211.98 0.5ZM253.98 0.5L253.98 0.5Q250.83 0.5 248.6-0.1 246.38-0.7 244.03-1.85L244.03-1.85 243.53-10.1 244.33-10.1 246.98-4.65Q248.73-3.2 250.43-2.55 252.13-1.9 253.83-1.9L253.83-1.9Q256.73-1.9 258.4-3.4 260.08-4.9 260.08-7.5L260.08-7.5Q260.08-9.55 259.15-10.78 258.23-12 256.4-12.98 254.58-13.95 251.93-15.25L251.93-15.25Q248.38-16.95 246.48-18.82 244.58-20.7 244.58-24.1L244.58-24.1Q244.58-25.9 245.45-27.58 246.33-29.25 247.83-30.58 249.33-31.9 251.18-32.7 253.03-33.5 255.03-33.5L255.03-33.5Q257.38-33.5 259.43-32.95 261.48-32.4 263.48-31.35L263.48-31.35 263.98-23.35 263.18-23.35 260.58-28.7Q258.98-29.95 257.68-30.5 256.38-31.05 254.73-31.05L254.73-31.05Q252.58-31.05 251.15-29.6 249.73-28.15 249.73-25.95L249.73-25.95Q249.73-23.5 251.25-22.1 252.78-20.7 256.18-19.1L256.18-19.1Q259.18-17.65 261.15-16.32 263.13-15 264.08-13.35 265.03-11.7 265.03-9.15L265.03-9.15Q265.03-6.8 264.03-5 263.03-3.2 261.38-1.98 259.73-0.75 257.8-0.13 255.88 0.5 253.98 0.5ZM285.43 0.5L285.43 0.5Q281.23 0.5 277.98-1.38 274.73-3.25 272.85-6.53 270.98-9.8 270.98-14L270.98-14Q270.98-18.2 272.85-21.5 274.73-24.8 277.98-26.68 281.23-28.55 285.43-28.55L285.43-28.55Q289.63-28.55 292.9-26.68 296.18-24.8 298.05-21.5 299.93-18.2 299.93-14L299.93-14Q299.93-9.8 298.05-6.53 296.18-3.25 292.9-1.38 289.63 0.5 285.43 0.5ZM286.23-2L286.23-2Q290.28-2 292.58-4.95 294.88-7.9 294.88-12.75L294.88-12.75Q294.88-16.7 293.6-19.7 292.33-22.7 290.03-24.38 287.73-26.05 284.78-26.05L284.78-26.05Q280.78-26.05 278.4-23.13 276.03-20.2 276.03-15.4L276.03-15.4Q276.03-11.4 277.33-8.4 278.63-5.4 280.93-3.7 283.23-2 286.23-2ZM318.97 0L306.17 0 306.17-0.8 309.82-2.45 309.82-25.55 306.22-27.2 306.22-28 328.07-28 328.07-20.8 327.27-20.8 324.87-25.45 314.77-25.45 314.77-15.75 321.97-15.75 323.67-19.2 324.42-19.2 324.42-9.85 323.67-9.85 321.97-13.25 314.77-13.25 314.77-2.45 318.97-0.8 318.97 0ZM353.82 0L339.82 0 339.82-0.8 344.32-2.45 344.32-25.5 336.97-25.5 334.32-19.4 333.52-19.4 333.52-28 360.12-28 360.12-19.4 359.32-19.4 356.62-25.5 349.27-25.5 349.27-2.45 353.82-0.8 353.82 0ZM376.82 0.2L374.37 0.2 366.32-25.7 362.97-27.2 362.97-28 375.27-28 375.27-27.2 371.52-25.8 376.82-8 377.17-8 385.12-28.15 387.37-28.15 394.97-8 395.22-8 400.27-25.7 396.52-27.2 396.52-28 406.37-28 406.37-27.2 403.37-25.7 395.42 0.2 392.97 0.2 385.07-20.15 384.87-20.15 376.82 0.2ZM417.87 0L408.57 0 408.57-0.8 411.12-2.15 422.22-28.25 424.82-28.25 435.82-2.25 438.77-0.8 438.77 0 427.17 0 427.17-0.8 430.67-2.25 427.57-9.65 417.27-9.65 414.22-2.2 417.87-0.8 417.87 0ZM422.37-22.1L418.32-12.15 426.52-12.15 422.37-22.1ZM455.11 0L443.26 0 443.26-0.8 446.91-2.45 446.91-25.55 443.26-27.2 443.26-28 455.36-28Q459.96-28 462.64-26.13 465.31-24.25 465.31-20.95L465.31-20.95Q465.31-18.55 463.84-16.82 462.36-15.1 459.61-14.1L459.61-14.1 467.31-2.35 470.61-0.8 470.61 0 462.76 0 454.86-12.75 451.81-12.75 451.81-2.5 455.11-0.8 455.11 0ZM454.16-25.55L454.16-25.55 451.81-25.55 451.81-15.2 454.36-15.2Q457.06-15.2 458.61-16.6 460.16-18 460.16-20.4L460.16-20.4Q460.16-22.95 458.59-24.25 457.01-25.55 454.16-25.55ZM496.56 0L473.31 0 473.31-0.8 476.91-2.45 476.91-25.55 473.31-27.2 473.31-28 495.31-28 495.31-20.8 494.51-20.8 491.91-25.5 481.86-25.5 481.86-15.75 489.16-15.75 490.86-19.2 491.66-19.2 491.66-9.85 490.86-9.85 489.16-13.25 481.86-13.25 481.86-2.5 493.01-2.5 495.76-8.15 496.56-8.15 496.56 0ZM541.86 0L515.36 0 515.36-0.8 519.4-2.8 519.4-30.2 515.36-32.2 515.36-33 540.46-33 540.46-24.4 539.65-24.4 536.4-30.25 524.65-30.25 524.65-18.4 532.96-18.4 535.5-22.6 536.31-22.6 536.31-11.55 535.5-11.55 532.96-15.65 524.65-15.65 524.65-2.75 537.75-2.75 541.06-9.35 541.86-9.35 541.86 0ZM558.95 0L548.1 0 548.1-0.8 551.65-2.45 551.65-25.6 548.1-27.2 548.1-28 555.55-28 572.45-7.95 572.45-25.6 568.05-27.2 568.05-28 578.8-28 578.8-27.2 575.25-25.6 575.25 0.2 572.95 0.2 554.5-21.55 554.5-2.6 558.95-0.8 558.95 0ZM599.55 0.5L599.55 0.5Q595.35 0.5 592.02-1.28 588.7-3.05 586.77-6.15 584.85-9.25 584.85-13.25L584.85-13.25Q584.85-16.55 586.07-19.33 587.3-22.1 589.45-24.18 591.6-26.25 594.42-27.38 597.25-28.5 600.45-28.5L600.45-28.5Q603.8-28.5 605.82-27.93 607.85-27.35 609.7-26.45L609.7-26.45 610-19.25 609.25-19.25 606.25-24.25Q604.55-25.4 603.32-25.85 602.1-26.3 600.5-26.3L600.5-26.3Q597.25-26.3 594.77-24.85 592.3-23.4 590.92-20.85 589.55-18.3 589.55-15.1L589.55-15.1Q589.55-11 591-8.08 592.45-5.15 594.97-3.58 597.5-2 600.7-2L600.7-2Q602-2 603.27-2.18 604.55-2.35 605.85-2.85L605.85-2.85 605.85-10 602-11.75 602-12.5 613.45-12.5 613.45-11.75 610.45-9.9 610.45-3.1Q609.2-2 607.35-1.2 605.5-0.4 603.45 0.05 601.4 0.5 599.55 0.5ZM630.7 0L618.95 0 618.95-0.8 622.25-2.45 622.25-25.55 618.95-27.2 618.95-28 630.7-28 630.7-27.2 627.25-25.55 627.25-2.45 630.7-0.8 630.7 0ZM647.54 0L636.69 0 636.69-0.8 640.24-2.45 640.24-25.6 636.69-27.2 636.69-28 644.14-28 661.04-7.95 661.04-25.6 656.64-27.2 656.64-28 667.39-28 667.39-27.2 663.84-25.6 663.84 0.2 661.54 0.2 643.09-21.55 643.09-2.6 647.54-0.8 647.54 0ZM696.44 0L673.19 0 673.19-0.8 676.79-2.45 676.79-25.55 673.19-27.2 673.19-28 695.19-28 695.19-20.8 694.39-20.8 691.79-25.5 681.74-25.5 681.74-15.75 689.04-15.75 690.74-19.2 691.54-19.2 691.54-9.85 690.74-9.85 689.04-13.25 681.74-13.25 681.74-2.5 692.89-2.5 695.64-8.15 696.44-8.15 696.44 0ZM725.99 0L702.74 0 702.74-0.8 706.34-2.45 706.34-25.55 702.74-27.2 702.74-28 724.74-28 724.74-20.8 723.94-20.8 721.34-25.5 711.29-25.5 711.29-15.75 718.59-15.75 720.29-19.2 721.09-19.2 721.09-9.85 720.29-9.85 718.59-13.25 711.29-13.25 711.29-2.5 722.44-2.5 725.19-8.15 725.99-8.15 725.99 0ZM744.14 0L732.29 0 732.29-0.8 735.94-2.45 735.94-25.55 732.29-27.2 732.29-28 744.39-28Q748.99-28 751.66-26.13 754.34-24.25 754.34-20.95L754.34-20.95Q754.34-18.55 752.86-16.82 751.39-15.1 748.64-14.1L748.64-14.1 756.34-2.35 759.64-0.8 759.64 0 751.79 0 743.89-12.75 740.84-12.75 740.84-2.5 744.14-0.8 744.14 0ZM743.19-25.55L743.19-25.55 740.84-25.55 740.84-15.2 743.39-15.2Q746.09-15.2 747.64-16.6 749.19-18 749.19-20.4L749.19-20.4Q749.19-22.95 747.61-24.25 746.04-25.55 743.19-25.55Z" opacity="1" transform="matrix(1,0,0,1,0,0)" fill="#000000" class="undefined-text-1" data-fill-palette-color="secondary" id="text-1"></path></svg></g></svg></g></svg></g></svg></g></svg></g></svg></g></svg></g></svg></g><defs></defs></svg><rect width="395.52" height="247.2" fill="none" stroke="none" visibility="hidden"></rect></g></svg></g></svg>